<svg width="236" height="236" viewBox="0 0 236 236" fill="none" xmlns="http://www.w3.org/2000/svg">
<g filter="url(#filter0_di_1_212)">
<path d="M222.511 111.879C224.122 113.391 224.201 115.923 222.689 117.533L124.12 222.51C122.608 224.121 120.077 224.2 118.466 222.688L13.4893 124.119C11.8788 122.607 11.7991 120.076 13.3112 118.465L111.88 13.4882C113.392 11.8778 115.924 11.7981 117.534 13.3102L222.511 111.879Z" fill="#D9D9D9" fill-opacity="0.01" shape-rendering="crispEdges"/>
<path d="M220.8 113.702C221.404 114.269 221.434 115.218 220.867 115.822L122.298 220.799C121.731 221.403 120.781 221.433 120.178 220.866L15.2005 122.297C14.5966 121.73 14.5667 120.78 15.1338 120.176L113.703 15.1995C114.27 14.5956 115.219 14.5657 115.823 15.1328L220.8 113.702Z" stroke="#00A2AD" stroke-width="5" shape-rendering="crispEdges"/>
</g>
<defs>
<filter id="filter0_di_1_212" x="0.227264" y="0.226257" width="235.546" height="235.546" filterUnits="userSpaceOnUse" color-interpolation-filters="sRGB">
<feFlood flood-opacity="0" result="BackgroundImageFix"/>
<feColorMatrix in="SourceAlpha" type="matrix" values="0 0 0 0 0 0 0 0 0 0 0 0 0 0 0 0 0 0 127 0" result="hardAlpha"/>
<feOffset/>
<feGaussianBlur stdDeviation="6"/>
<feComposite in2="hardAlpha" operator="out"/>
<feColorMatrix type="matrix" values="0 0 0 0 0 0 0 0 0 0.635294 0 0 0 0 0.678431 0 0 0 0.25 0"/>
<feBlend mode="normal" in2="BackgroundImageFix" result="effect1_dropShadow_1_212"/>
<feBlend mode="normal" in="SourceGraphic" in2="effect1_dropShadow_1_212" result="shape"/>
<feColorMatrix in="SourceAlpha" type="matrix" values="0 0 0 0 0 0 0 0 0 0 0 0 0 0 0 0 0 0 127 0" result="hardAlpha"/>
<feOffset/>
<feGaussianBlur stdDeviation="4"/>
<feComposite in2="hardAlpha" operator="arithmetic" k2="-1" k3="1"/>
<feColorMatrix type="matrix" values="0 0 0 0 0 0 0 0 0 0.635294 0 0 0 0 0.678431 0 0 0 1 0"/>
<feBlend mode="normal" in2="shape" result="effect2_innerShadow_1_212"/>
</filter>
</defs>
</svg>
